<?xml version="1.0" encoding="UTF-8" standalone="no"?>
<!DOCTYPE svg PUBLIC "-//W3C//DTD SVG 1.1//EN"
 "http://www.w3.org/Graphics/SVG/1.1/DTD/svg11.dtd">
<!-- Generated by graphviz version 2.40.1 (20161225.0304)
 -->
<!-- Title: G Pages: 1 -->
<svg width="629pt" height="530pt"
 viewBox="0.00 0.00 628.75 530.00" xmlns="http://www.w3.org/2000/svg" xmlns:xlink="http://www.w3.org/1999/xlink">
<g id="graph0" class="graph" transform="scale(1 1) rotate(0) translate(4 526)">
<title>G</title>
<polygon fill="#ffffff" stroke="transparent" points="-4,4 -4,-526 624.7525,-526 624.7525,4 -4,4"/>
<!-- A0 -->
<g id="node1" class="node">
<title>A0</title>
<ellipse fill="none" stroke="#000000" cx="264.5135" cy="-511" rx="11" ry="11"/>
</g>
<!-- A1 -->
<g id="node2" class="node">
<title>A1</title>
<polygon fill="none" stroke="#000000" points="264.5135,-463 246.5135,-445 264.5135,-427 282.5135,-445 264.5135,-463"/>
</g>
<!-- A0&#45;&gt;A1 -->
<g id="edge1" class="edge">
<title>A0&#45;&gt;A1</title>
<path fill="none" stroke="#000000" d="M264.5135,-499.804C264.5135,-492.5358 264.5135,-482.7135 264.5135,-473.3916"/>
<polygon fill="#000000" stroke="#000000" points="264.5135,-463.2423 269.0136,-473.2423 264.5135,-468.2423 264.5136,-473.2423 264.5136,-473.2423 264.5136,-473.2423 264.5135,-468.2423 260.0136,-473.2424 264.5135,-463.2423 264.5135,-463.2423"/>
</g>
<!-- A2 -->
<g id="node3" class="node">
<title>A2</title>
<polygon fill="none" stroke="#000000" points="47.5135,-211 29.5135,-193 47.5135,-175 65.5135,-193 47.5135,-211"/>
</g>
<!-- A1&#45;&gt;A2 -->
<g id="edge2" class="edge">
<title>A1&#45;&gt;A2</title>
<path fill="none" stroke="#000000" d="M253.1918,-438.0606C235.6864,-426.9874 201.5631,-404.0061 177.5135,-379 126.0904,-325.5317 79.9828,-250.0909 59.1917,-213.9276"/>
<polygon fill="#000000" stroke="#000000" points="54.0155,-204.8201 62.869,-211.2905 56.4861,-209.1671 58.9567,-213.5141 58.9567,-213.5141 58.9567,-213.5141 56.4861,-209.1671 55.0444,-215.7377 54.0155,-204.8201 54.0155,-204.8201"/>
<text text-anchor="middle" x="147.35" y="-316" font-family="Helvetica,sans-Serif" font-size="10.00" fill="#000000">[GET /]</text>
</g>
<!-- A6 -->
<g id="node7" class="node">
<title>A6</title>
<polygon fill="none" stroke="#000000" points="302.5135,-211 284.5135,-193 302.5135,-175 320.5135,-193 302.5135,-211"/>
</g>
<!-- A1&#45;&gt;A6 -->
<g id="edge7" class="edge">
<title>A1&#45;&gt;A6</title>
<path fill="none" stroke="#000000" d="M272.852,-434.9989C278.0573,-428.1395 284.3508,-418.578 287.5135,-409 309.0985,-343.6306 307.4773,-261.2489 304.8057,-219.6481"/>
<polygon fill="#000000" stroke="#000000" points="304.0801,-209.5138 309.2829,-219.1669 304.4373,-214.501 304.7944,-219.4883 304.7944,-219.4883 304.7944,-219.4883 304.4373,-214.501 300.3059,-219.8097 304.0801,-209.5138 304.0801,-209.5138"/>
<text text-anchor="middle" x="332.5735" y="-316" font-family="Helvetica,sans-Serif" font-size="10.00" fill="#000000">[GET /users]</text>
</g>
<!-- A8 -->
<g id="node9" class="node">
<title>A8</title>
<polygon fill="none" stroke="#000000" points="418.5135,-211 400.5135,-193 418.5135,-175 436.5135,-193 418.5135,-211"/>
</g>
<!-- A1&#45;&gt;A8 -->
<g id="edge11" class="edge">
<title>A1&#45;&gt;A8</title>
<path fill="none" stroke="#000000" d="M274.3391,-436.5638C282.2948,-429.5329 293.6033,-419.0749 302.5135,-409 333.2536,-374.2418 341.7773,-365.4494 364.5135,-325 384.7563,-288.9866 401.551,-243.8446 410.7933,-216.7717"/>
<polygon fill="#000000" stroke="#000000" points="414.065,-207.0092 415.1541,-217.9209 412.4762,-211.7501 410.8873,-216.491 410.8873,-216.491 410.8873,-216.491 412.4762,-211.7501 406.6205,-215.061 414.065,-207.0092 414.065,-207.0092"/>
<text text-anchor="middle" x="398.8575" y="-316" font-family="Helvetica,sans-Serif" font-size="10.00" fill="#000000">[GET /about]</text>
</g>
<!-- A11 -->
<g id="node12" class="node">
<title>A11</title>
<path fill="none" stroke="#000000" d="M254.7448,-379C254.7448,-379 198.2822,-379 198.2822,-379 192.2822,-379 186.2822,-373 186.2822,-367 186.2822,-367 186.2822,-355 186.2822,-355 186.2822,-349 192.2822,-343 198.2822,-343 198.2822,-343 254.7448,-343 254.7448,-343 260.7448,-343 266.7448,-349 266.7448,-355 266.7448,-355 266.7448,-367 266.7448,-367 266.7448,-373 260.7448,-379 254.7448,-379"/>
<text text-anchor="middle" x="226.5135" y="-358" font-family="Helvetica,sans-Serif" font-size="10.00" fill="#000000">Check login</text>
</g>
<!-- A1&#45;&gt;A11 -->
<g id="edge16" class="edge">
<title>A1&#45;&gt;A11</title>
<path fill="none" stroke="#000000" d="M253.3368,-437.6256C244.6887,-431.2109 233.3273,-421.0636 228.0565,-409 225.3839,-402.883 224.2321,-395.8973 223.9112,-389.1846"/>
<polygon fill="#000000" stroke="#000000" points="223.9918,-379.0247 228.4122,-389.0601 223.952,-384.0246 223.9123,-389.0244 223.9123,-389.0244 223.9123,-389.0244 223.952,-384.0246 219.4125,-388.9887 223.9918,-379.0247 223.9918,-379.0247"/>
<text text-anchor="middle" x="258.242" y="-400" font-family="Helvetica,sans-Serif" font-size="10.00" fill="#000000">[POST /login]</text>
</g>
<!-- A3 -->
<g id="node4" class="node">
<title>A3</title>
<path fill="none" stroke="#000000" d="M91.0405,-103C91.0405,-103 11.9865,-103 11.9865,-103 5.9865,-103 -.0135,-97 -.0135,-91 -.0135,-91 -.0135,-79 -.0135,-79 -.0135,-73 5.9865,-67 11.9865,-67 11.9865,-67 91.0405,-67 91.0405,-67 97.0405,-67 103.0405,-73 103.0405,-79 103.0405,-79 103.0405,-91 103.0405,-91 103.0405,-97 97.0405,-103 91.0405,-103"/>
<text text-anchor="middle" x="51.5135" y="-82" font-family="Helvetica,sans-Serif" font-size="10.00" fill="#000000">Show homepage</text>
</g>
<!-- A2&#45;&gt;A3 -->
<g id="edge3" class="edge">
<title>A2&#45;&gt;A3</title>
<path fill="none" stroke="#000000" d="M41.5002,-181.0087C38.4046,-174.1631 34.9573,-165.3123 33.3845,-157 30.4099,-141.2789 29.6862,-136.5667 33.3845,-121 34.0669,-118.1278 35.0167,-115.2245 36.1273,-112.3785"/>
<polygon fill="#000000" stroke="#000000" points="40.3674,-103.0509 40.3256,-114.0167 38.2982,-107.6027 36.229,-112.1545 36.229,-112.1545 36.229,-112.1545 38.2982,-107.6027 32.1324,-110.2923 40.3674,-103.0509 40.3674,-103.0509"/>
<text text-anchor="middle" x="56.578" y="-136" font-family="Helvetica,sans-Serif" font-size="10.00" fill="#000000">[logged in]</text>
</g>
<!-- A5 -->
<g id="node6" class="node">
<title>A5</title>
<path fill="none" stroke="#000000" d="M185.9136,-103C185.9136,-103 133.1134,-103 133.1134,-103 127.1134,-103 121.1134,-97 121.1134,-91 121.1134,-91 121.1134,-79 121.1134,-79 121.1134,-73 127.1134,-67 133.1134,-67 133.1134,-67 185.9136,-67 185.9136,-67 191.9136,-67 197.9136,-73 197.9136,-79 197.9136,-79 197.9136,-91 197.9136,-91 197.9136,-97 191.9136,-103 185.9136,-103"/>
<text text-anchor="middle" x="159.5135" y="-82" font-family="Helvetica,sans-Serif" font-size="10.00" fill="#000000">Show login</text>
</g>
<!-- A2&#45;&gt;A5 -->
<g id="edge5" class="edge">
<title>A2&#45;&gt;A5</title>
<path fill="none" stroke="#000000" d="M56.6789,-184.1619C73.25,-168.1826 108.7561,-133.9447 133.3766,-110.2035"/>
<polygon fill="#000000" stroke="#000000" points="140.6349,-103.2043 136.5601,-113.385 137.0357,-106.675 133.4365,-110.1457 133.4365,-110.1457 133.4365,-110.1457 137.0357,-106.675 130.3129,-106.9064 140.6349,-103.2043 140.6349,-103.2043"/>
<text text-anchor="middle" x="132.461" y="-136" font-family="Helvetica,sans-Serif" font-size="10.00" fill="#000000">[else]</text>
</g>
<!-- A4 -->
<g id="node5" class="node">
<title>A4</title>
<ellipse fill="none" stroke="#000000" cx="237.5135" cy="-15" rx="11" ry="11"/>
<ellipse fill="none" stroke="#000000" cx="237.5135" cy="-15" rx="15" ry="15"/>
</g>
<!-- A3&#45;&gt;A4 -->
<g id="edge4" class="edge">
<title>A3&#45;&gt;A4</title>
<path fill="none" stroke="#000000" d="M99.4131,-66.9733C136.0335,-53.1914 184.9639,-34.7767 213.6749,-23.9715"/>
<polygon fill="#000000" stroke="#000000" points="223.2776,-20.3576 215.5035,-28.0915 218.5981,-22.1187 213.9185,-23.8799 213.9185,-23.8799 213.9185,-23.8799 218.5981,-22.1187 212.3334,-19.6683 223.2776,-20.3576 223.2776,-20.3576"/>
</g>
<!-- A5&#45;&gt;A4 -->
<g id="edge6" class="edge">
<title>A5&#45;&gt;A4</title>
<path fill="none" stroke="#000000" d="M179.6004,-66.9733C191.6298,-56.1777 206.8267,-42.5394 218.6346,-31.9426"/>
<polygon fill="#000000" stroke="#000000" points="226.1873,-25.1646 221.7504,-35.1928 222.466,-28.5041 218.7448,-31.8437 218.7448,-31.8437 218.7448,-31.8437 222.466,-28.5041 215.7392,-28.4946 226.1873,-25.1646 226.1873,-25.1646"/>
</g>
<!-- A6&#45;&gt;A5 -->
<g id="edge10" class="edge">
<title>A6&#45;&gt;A5</title>
<path fill="none" stroke="#000000" d="M301.7219,-175.5111C300.0521,-159.2616 295.0772,-135.4568 280.5135,-121 270.0084,-110.572 236.9029,-101.126 207.9711,-94.5289"/>
<polygon fill="#000000" stroke="#000000" points="197.9555,-92.3173 208.6906,-90.0794 202.8379,-93.3954 207.7203,-94.4736 207.7203,-94.4736 207.7203,-94.4736 202.8379,-93.3954 206.7499,-98.8677 197.9555,-92.3173 197.9555,-92.3173"/>
<text text-anchor="middle" x="310.461" y="-136" font-family="Helvetica,sans-Serif" font-size="10.00" fill="#000000">[else]</text>
</g>
<!-- A7 -->
<g id="node8" class="node">
<title>A7</title>
<path fill="none" stroke="#000000" d="M321.7458,-103C321.7458,-103 265.2812,-103 265.2812,-103 259.2812,-103 253.2812,-97 253.2812,-91 253.2812,-91 253.2812,-79 253.2812,-79 253.2812,-73 259.2812,-67 265.2812,-67 265.2812,-67 321.7458,-67 321.7458,-67 327.7458,-67 333.7458,-73 333.7458,-79 333.7458,-79 333.7458,-91 333.7458,-91 333.7458,-97 327.7458,-103 321.7458,-103"/>
<text text-anchor="middle" x="293.5135" y="-82" font-family="Helvetica,sans-Serif" font-size="10.00" fill="#000000">Show users</text>
</g>
<!-- A6&#45;&gt;A7 -->
<g id="edge8" class="edge">
<title>A6&#45;&gt;A7</title>
<path fill="none" stroke="#000000" d="M311.2998,-183.7858C317.1515,-176.9796 324.3298,-167.1661 327.5135,-157 332.2952,-141.7312 333.4247,-135.868 327.5135,-121 326.1299,-117.52 324.2327,-114.1819 322.0367,-111.0382"/>
<polygon fill="#000000" stroke="#000000" points="315.6735,-103.2067 325.4721,-108.1301 318.8265,-107.0873 321.9796,-110.9678 321.9796,-110.9678 321.9796,-110.9678 318.8265,-107.0873 318.487,-113.8055 315.6735,-103.2067 315.6735,-103.2067"/>
<text text-anchor="middle" x="354.578" y="-136" font-family="Helvetica,sans-Serif" font-size="10.00" fill="#000000">[logged in]</text>
</g>
<!-- A7&#45;&gt;A4 -->
<g id="edge9" class="edge">
<title>A7&#45;&gt;A4</title>
<path fill="none" stroke="#000000" d="M279.0921,-66.9733C271.1929,-57.0992 261.3913,-44.8472 253.2889,-34.7193"/>
<polygon fill="#000000" stroke="#000000" points="246.9617,-26.8102 256.7226,-31.8078 250.0852,-30.7146 253.2087,-34.6189 253.2087,-34.6189 253.2087,-34.6189 250.0852,-30.7146 249.6947,-37.4301 246.9617,-26.8102 246.9617,-26.8102"/>
</g>
<!-- A9 -->
<g id="node10" class="node">
<title>A9</title>
<path fill="none" stroke="#000000" d="M457.5952,-103C457.5952,-103 363.4318,-103 363.4318,-103 357.4318,-103 351.4318,-97 351.4318,-91 351.4318,-91 351.4318,-79 351.4318,-79 351.4318,-73 357.4318,-67 363.4318,-67 363.4318,-67 457.5952,-67 457.5952,-67 463.5952,-67 469.5952,-73 469.5952,-79 469.5952,-79 469.5952,-91 469.5952,-91 469.5952,-97 463.5952,-103 457.5952,-103"/>
<text text-anchor="middle" x="410.5135" y="-82" font-family="Helvetica,sans-Serif" font-size="10.00" fill="#000000">Show about with bar</text>
</g>
<!-- A8&#45;&gt;A9 -->
<g id="edge12" class="edge">
<title>A8&#45;&gt;A9</title>
<path fill="none" stroke="#000000" d="M417.2635,-176.125C416.0193,-159.3287 414.0872,-133.2448 412.6083,-113.2804"/>
<polygon fill="#000000" stroke="#000000" points="411.8615,-103.1986 417.0881,-112.8388 412.2309,-108.1849 412.6004,-113.1713 412.6004,-113.1713 412.6004,-113.1713 412.2309,-108.1849 408.1126,-113.5037 411.8615,-103.1986 411.8615,-103.1986"/>
<text text-anchor="middle" x="438.578" y="-136" font-family="Helvetica,sans-Serif" font-size="10.00" fill="#000000">[logged in]</text>
</g>
<!-- A10 -->
<g id="node11" class="node">
<title>A10</title>
<path fill="none" stroke="#000000" d="M608.9924,-103C608.9924,-103 500.0346,-103 500.0346,-103 494.0346,-103 488.0346,-97 488.0346,-91 488.0346,-91 488.0346,-79 488.0346,-79 488.0346,-73 494.0346,-67 500.0346,-67 500.0346,-67 608.9924,-67 608.9924,-67 614.9924,-67 620.9924,-73 620.9924,-79 620.9924,-79 620.9924,-91 620.9924,-91 620.9924,-97 614.9924,-103 608.9924,-103"/>
<text text-anchor="middle" x="554.5135" y="-82" font-family="Helvetica,sans-Serif" font-size="10.00" fill="#000000">Show about without bar</text>
</g>
<!-- A8&#45;&gt;A10 -->
<g id="edge14" class="edge">
<title>A8&#45;&gt;A10</title>
<path fill="none" stroke="#000000" d="M429.0286,-185.072C438.5945,-177.8298 453.0765,-166.791 465.5135,-157 485.2409,-141.4696 507.1712,-123.7339 524.3263,-109.7512"/>
<polygon fill="#000000" stroke="#000000" points="532.3338,-103.2146 527.4328,-113.0244 528.4604,-106.3765 524.5871,-109.5384 524.5871,-109.5384 524.5871,-109.5384 528.4604,-106.3765 521.7414,-106.0524 532.3338,-103.2146 532.3338,-103.2146"/>
<text text-anchor="middle" x="520.461" y="-136" font-family="Helvetica,sans-Serif" font-size="10.00" fill="#000000">[else]</text>
</g>
<!-- A9&#45;&gt;A4 -->
<g id="edge13" class="edge">
<title>A9&#45;&gt;A4</title>
<path fill="none" stroke="#000000" d="M365.9617,-66.9733C332.4053,-53.3955 287.7359,-35.3212 260.8848,-24.4566"/>
<polygon fill="#000000" stroke="#000000" points="251.5266,-20.67 262.4844,-20.2495 256.1615,-22.5455 260.7965,-24.4209 260.7965,-24.4209 260.7965,-24.4209 256.1615,-22.5455 259.1086,-28.5924 251.5266,-20.67 251.5266,-20.67"/>
</g>
<!-- A10&#45;&gt;A4 -->
<g id="edge15" class="edge">
<title>A10&#45;&gt;A4</title>
<path fill="none" stroke="#000000" d="M488.2125,-69.2145C484.9344,-68.46 481.6875,-67.7182 478.5135,-67 399.6169,-49.1472 305.8689,-29.3146 262.1929,-20.1545"/>
<polygon fill="#000000" stroke="#000000" points="252.2072,-18.0633 262.9173,-15.7086 257.101,-19.0882 261.9948,-20.1131 261.9948,-20.1131 261.9948,-20.1131 257.101,-19.0882 261.0724,-24.5175 252.2072,-18.0633 252.2072,-18.0633"/>
</g>
<!-- A12 -->
<g id="node13" class="node">
<title>A12</title>
<polygon fill="none" stroke="#000000" points="225.5135,-295 207.5135,-277 225.5135,-259 243.5135,-277 225.5135,-295"/>
</g>
<!-- A11&#45;&gt;A12 -->
<g id="edge17" class="edge">
<title>A11&#45;&gt;A12</title>
<path fill="none" stroke="#000000" d="M226.2965,-342.7733C226.1659,-331.8012 225.9969,-317.6016 225.8493,-305.2054"/>
<polygon fill="#000000" stroke="#000000" points="225.7266,-294.9026 230.3454,-304.8483 225.7862,-299.9022 225.8458,-304.9019 225.8458,-304.9019 225.8458,-304.9019 225.7862,-299.9022 221.3461,-304.9555 225.7266,-294.9026 225.7266,-294.9026"/>
</g>
<!-- A13 -->
<g id="node14" class="node">
<title>A13</title>
<path fill="none" stroke="#000000" d="M185.0953,-211C185.0953,-211 95.9317,-211 95.9317,-211 89.9317,-211 83.9317,-205 83.9317,-199 83.9317,-199 83.9317,-187 83.9317,-187 83.9317,-181 89.9317,-175 95.9317,-175 95.9317,-175 185.0953,-175 185.0953,-175 191.0953,-175 197.0953,-181 197.0953,-187 197.0953,-187 197.0953,-199 197.0953,-199 197.0953,-205 191.0953,-211 185.0953,-211"/>
<text text-anchor="middle" x="140.5135" y="-190" font-family="Helvetica,sans-Serif" font-size="10.00" fill="#000000">Login and redirect /</text>
</g>
<!-- A12&#45;&gt;A13 -->
<g id="edge18" class="edge">
<title>A12&#45;&gt;A13</title>
<path fill="none" stroke="#000000" d="M211.9174,-272.2667C197.7618,-266.73 175.7515,-256.3259 161.8375,-241 156.6122,-235.2445 152.5023,-227.9993 149.3444,-220.8949"/>
<polygon fill="#000000" stroke="#000000" points="145.613,-211.4473 153.4719,-219.095 147.4498,-216.0977 149.2866,-220.7482 149.2866,-220.7482 149.2866,-220.7482 147.4498,-216.0977 145.1012,-222.4013 145.613,-211.4473 145.613,-211.4473"/>
<text text-anchor="middle" x="183.3515" y="-232" font-family="Helvetica,sans-Serif" font-size="10.00" fill="#000000">[success]</text>
</g>
<!-- A14 -->
<g id="node15" class="node">
<title>A14</title>
<path fill="none" stroke="#000000" d="M267.6929,-157C267.6929,-157 167.3341,-157 167.3341,-157 161.3341,-157 155.3341,-151 155.3341,-145 155.3341,-145 155.3341,-133 155.3341,-133 155.3341,-127 161.3341,-121 167.3341,-121 167.3341,-121 267.6929,-121 267.6929,-121 273.6929,-121 279.6929,-127 279.6929,-133 279.6929,-133 279.6929,-145 279.6929,-145 279.6929,-151 273.6929,-157 267.6929,-157"/>
<text text-anchor="middle" x="217.5135" y="-136" font-family="Helvetica,sans-Serif" font-size="10.00" fill="#000000">Show Login with error</text>
</g>
<!-- A12&#45;&gt;A14 -->
<g id="edge20" class="edge">
<title>A12&#45;&gt;A14</title>
<path fill="none" stroke="#000000" d="M224.5165,-259.8012C223.1779,-236.7109 220.782,-195.3818 219.1702,-167.5782"/>
<polygon fill="#000000" stroke="#000000" points="218.5741,-157.2953 223.6454,-167.018 218.8635,-162.2869 219.1529,-167.2785 219.1529,-167.2785 219.1529,-167.2785 218.8635,-162.2869 214.6605,-167.539 218.5741,-157.2953 218.5741,-157.2953"/>
<text text-anchor="middle" x="235.461" y="-232" font-family="Helvetica,sans-Serif" font-size="10.00" fill="#000000">[else]</text>
</g>
<!-- A13&#45;&gt;A3 -->
<g id="edge19" class="edge">
<title>A13&#45;&gt;A3</title>
<path fill="none" stroke="#000000" d="M141.3219,-174.9011C141.0976,-159.1257 138.423,-136.4195 126.5135,-121 122.5158,-115.8241 117.5858,-111.3528 112.1784,-107.499"/>
<polygon fill="#000000" stroke="#000000" points="103.3536,-101.9385 114.2131,-103.4622 107.5839,-104.604 111.8142,-107.2695 111.8142,-107.2695 111.8142,-107.2695 107.5839,-104.604 109.4152,-111.0768 103.3536,-101.9385 103.3536,-101.9385"/>
</g>
<!-- A14&#45;&gt;A4 -->
<g id="edge21" class="edge">
<title>A14&#45;&gt;A4</title>
<path fill="none" stroke="#000000" d="M220.4217,-120.9693C223.8602,-99.6502 229.6037,-64.0407 233.4731,-40.0507"/>
<polygon fill="#000000" stroke="#000000" points="235.104,-29.939 237.9542,-40.528 234.3078,-34.8752 233.5116,-39.8114 233.5116,-39.8114 233.5116,-39.8114 234.3078,-34.8752 229.069,-39.0948 235.104,-29.939 235.104,-29.939"/>
</g>
</g>
</svg>
